<svg xmlns="http://www.w3.org/2000/svg" xml:space="preserve" width="128" height="128" data-id="lg_Pvf49zmVmEcdv1C7Bj" data-version="1"><g data-padding="20"><g transform="translate(56.1 54.884)scale(.14215)"><path fill="#21272d" stroke="transparent" d="M-294.613 21.017h62.58q9.87 0 17.49 2.15 7.61 2.15 13.07 5.93t8.92 8.77q3.47 4.99 5.15 10.66t1.68 11.55q0 7.45-2.68 14.54t-8.29 12.76q-5.62 5.67-14.39 9.03t-20.95 3.36h-62.58v-66.1Zm54.18 30.24h-12.6v18.27h12.81q2.31 0 4.15-.74 1.84-.73 3.1-1.99t1.94-2.94.68-3.47q0-2.52-1.2-4.62-1.21-2.1-3.42-3.31-2.2-1.2-5.46-1.2m104.26 24.78q5.56 0 8.61-2 3.04-1.99 3.15-5.46l32.44 10.61q-1.89 6.61-8.03 12.02t-15.49 8.56q-9.34 3.15-20.89 3.15-9.87 0-18.43-2.21-8.56-2.2-15.01-6.67-6.46-4.46-10.14-11.18-3.67-6.72-3.67-15.64 0-8.93 3.67-15.65 3.68-6.72 10.14-11.18 6.45-4.46 15.06-6.67 8.61-2.2 18.38-2.2 9.97 0 18.32 2.2 8.35 2.21 14.39 6.77 6.03 4.57 9.34 11.55 3.31 6.99 3.31 16.54h-57.33v.11q0 1.57.84 2.94.84 1.36 2.36 2.36t3.78 1.52q2.26.53 5.2.53m-.21-17.96q-5.15 0-8.51 1.84t-3.36 5.2v.21h23.52q.11 0 .11-.06v-.15q0-1.68-.89-3-.9-1.31-2.47-2.2-1.58-.89-3.73-1.37-2.15-.47-4.67-.47m95.03-23.41h36.54l-5.04 16.32q-2.52 8.14-4.98 16.23-2.47 8.08-4.99 16.22l-5.04 16.33h-50.09l-3.99-13.02-3.99-13.02q-1.99-6.51-4.04-13.02t-4.04-13.02l-3.99-13.02h38.53q.63 3.67 1.21 7.29.58 3.63 1.21 7.3.63 3.68 1.21 7.35.57 3.68 1.2 7.35.63 3.68 1.21 7.3t1.21 7.3l.16.78q.05.27.15.27.11 0 .16-.27l.16-.78q.63-3.68 1.21-7.3.57-3.62 1.2-7.3.63-3.67 1.21-7.35.58-3.67 1.21-7.35.63-3.67 1.21-7.3.57-3.62 1.2-7.29m38.42 3.78v25.09q4.73-3.04 11.03-4.62 6.3-1.57 12.49-1.57 3.99 0 7.62.73 3.62.74 6.4 2.26t4.41 3.88q1.63 2.37 1.63 5.62v.95q-1.58-2.1-4.04-3.78-2.47-1.68-5.57-2.84-3.1-1.15-6.56-1.73-3.47-.58-7.14-.58-5.67 0-10.08 1.1-4.41 1.11-7.61 3.1-3.21 2-5.31 4.62-2.1 2.63-3.15 5.57t-1.05 5.98q0 5.04 2.1 8.82t5.73 6.3q3.62 2.52 8.19 3.83 4.56 1.32 9.5 1.32 4.09 0 8.24-.79t7.93-2.68q2.2-5.14 4.46-10.29 2.26-5.14 4.46-10.29-1.26 3.05-3.67 3.78-2.42.74-4.31.74-3.88 0-5.98-1.63t-2.1-3.62q0-2 2.05-3.57 2.04-1.58 6.03-1.58 1.79 0 3.57.47 1.79.48 3.05 1.63 1.26 1.16 1.26 3.05v22.05h36.75v-40.74q0-6.93-3.78-12.08-3.78-5.14-10.24-8.61-6.46-3.46-14.65-5.14t-17.01-1.68q-9.03 0-18 1.73-8.98 1.73-16.65 5.2m168.22 61.31h-36.33v-33.18q0-3.05-1.52-4.31t-3.62-1.36q-2.1-.11-3.83.52-1.74.63-2.16 1.26l8.4-26.98q3.78-1.68 8.09-2.52 4.3-.84 8.5-.84 5.88 0 10.98 1.89 5.09 1.89 8.29 5.98 3.2 4.1 3.2 10.92Zm-47.46 0h-36.33v-65.1h36.33v49.45Zm143.21-65.09h-36.33v7.03q0 .11-.05.11t-.16-.21q-1.36-2-3.3-3.42-1.95-1.41-4.26-2.41t-4.77-1.58q-2.47-.57-4.89-.84-2.41-.26-4.51-.26-4.52 0-8.87.89-4.36.9-8.19 2.68-3.84 1.79-7.04 4.36t-5.51 5.93-3.57 7.35-1.26 8.72q0 7.03 2.68 12.54 2.67 5.52 7.24 9.35t10.45 5.88 12.28 2.05q4.41 0 8.72-.53 4.3-.52 8.71-3.15l6.3-24.67q-1.99 6.09-10.39 6.09-3.15 0-5.57-.9-2.41-.89-3.83-2.57t-1.42-4.09q0-2.31 1.37-3.89 1.36-1.57 3.83-2.36t5.62-.79q2.31 0 4.2.47 1.89.48 3.31 1.37 1.41.89 2.15 2.26.73 1.36.73 3.25v19.43q0 3.99-1.57 6.72-1.58 2.73-4.31 4.41t-6.24 2.46q-3.52.79-7.51.79-4.83 0-9.77-.94-4.93-.95-9.29-2.58-4.36-1.62-7.4-3.62v16.7q7.14 3.99 16.17 5.98 9.03 2 18.27 2 7.24 0 14.28-1.21 7.03-1.21 13.12-3.52t10.71-5.83q4.62-3.51 7.25-8.08 2.62-4.57 2.62-10.24v-25.62Z"/><rect width="560" height="118.65" x="-617.433" y="-395.693" fill="none" rx="0" ry="0" transform="translate(321.17 400.5)"/><path fill="#15805d" d="M346.995 109.006c.26-.31.15-.72-.037-1.054.199.335.323.744.037 1.041"/><path fill="#15805d" d="M365.062 108.592c-.186.21-.558.372-1.215.409l-.471.025c-.496.025-1.29.037-2.282.05l-1.798.024h-4.005c-2.393.025-5.047.025-7.676.025l-11.718-.025-1.884-.025-3.435-.062h-.285l-.298-.05c-2.145-.297-.446-2.008-.446-2.008s2.604-2.034 3.893-4.055c0 0 .385-.025.744-3.15.496-4.439.93-7.886.93-7.886h23.932l.918 7.887c.347 3.124.744 3.15.744 3.15a19.8 19.8 0 0 0 3.88 4.066l.2.236c.272.322.657.955.285 1.389m-17.856-18.34c-3.931.013-55.242.174-57.735 0-2.604-.186-2.79-2.79-2.79-2.79V19.324c0-2.232 2.79-2.356 2.79-2.356h115.147s2.79.124 2.79 2.356v68.15s-.186 2.605-2.79 2.79c-2.443.174-51.622.013-57.412 0m55.514-68.695H291.505v62.93h111.228Z"/></g><path fill="transparent" stroke="transparent" stroke-width=".146" d="M12.5 55.295h103v17.41h-103z"/></g></svg>